<?xml version="1.0" standalone="no"?>
<!DOCTYPE svg PUBLIC "-//W3C//DTD SVG 20010904//EN"
 "http://www.w3.org/TR/2001/REC-SVG-20010904/DTD/svg10.dtd">
<svg version="1.0" xmlns="http://www.w3.org/2000/svg"
 width="1920.000000pt" height="1140.000000pt" viewBox="0 0 1920.000000 1140.000000"
 preserveAspectRatio="xMidYMid meet">

<g transform="translate(0.000000,1140.000000) scale(0.100000,-0.100000)"
fill="#000000" stroke="none">
<path d="M3628 11373 c-25 -27 -22 -68 4 -93 12 -11 67 -50 121 -86 440 -292
1209 -634 2274 -1010 122 -43 221 -80 219 -81 -2 -2 -74 17 -162 42 -220 63
-742 196 -959 244 -498 110 -1055 188 -1275 179 -72 -3 -75 -4 -75 -28 0 -19
15 -33 75 -71 453 -279 1071 -515 1780 -679 118 -27 234 -52 258 -56 23 -4 41
-9 38 -11 -2 -2 -80 5 -173 16 -542 66 -1247 76 -1497 21 -51 -11 -70 -42 -47
-78 19 -30 383 -147 725 -232 361 -91 781 -170 1356 -256 312 -47 312 -47 -85
-23 -252 15 -861 6 -1055 -15 -159 -18 -374 -51 -432 -67 -47 -12 -62 -50 -32
-79 59 -54 426 -154 794 -214 379 -62 943 -116 1525 -146 116 -6 230 -12 255
-13 25 -2 -117 -4 -315 -5 -543 -3 -935 -26 -1237 -72 -148 -23 -323 -65 -355
-86 -28 -17 -30 -59 -5 -72 35 -18 343 -80 552 -111 415 -62 1056 -108 1540
-112 80 -1 138 -3 130 -5 -8 -2 -154 -8 -325 -14 -500 -17 -809 -39 -1070 -76
-107 -14 -111 -16 -147 -54 -51 -53 -50 -97 4 -157 l20 -22 -33 -5 c-19 -3
-106 -10 -194 -16 -239 -16 -845 -67 -1140 -95 -1807 -174 -3149 -416 -4150
-750 -208 -70 -467 -168 -503 -191 -24 -16 -30 -55 -10 -72 19 -15 161 -49
263 -63 193 -25 155 -31 2275 360 2085 386 3082 537 3748 571 200 10 445 1
479 -19 17 -9 -542 -89 -1907 -271 -1973 -264 -2777 -395 -3382 -549 -370 -94
-691 -216 -704 -267 -8 -30 3 -61 24 -69 36 -14 315 -27 447 -21 190 9 189 9
950 166 2156 446 2909 582 3480 630 66 5 287 19 490 30 324 18 661 40 835 54
95 8 -260 -50 -915 -149 -1363 -208 -1756 -269 -2155 -335 -964 -161 -1562
-291 -1931 -419 -139 -48 -249 -100 -263 -123 -39 -64 146 -112 424 -112 198
1 264 11 589 90 879 215 1739 382 2786 543 663 102 1938 268 1890 246 -5 -2
-305 -56 -665 -120 -1818 -322 -2527 -461 -3132 -614 -259 -66 -488 -135 -611
-184 -71 -29 -82 -37 -85 -59 -2 -19 3 -30 17 -38 12 -6 94 -15 183 -21 261
-16 432 -1 748 66 902 191 3830 738 3928 734 81 -3 -1335 -332 -2529 -588
-410 -88 -544 -128 -718 -215 -116 -59 -136 -75 -127 -104 6 -17 20 -20 114
-26 106 -6 478 7 563 20 24 4 175 40 334 80 441 110 890 209 1645 363 544 111
812 163 816 158 2 -2 -62 -18 -143 -36 -868 -192 -1485 -396 -1663 -549 -74
-62 -52 -89 86 -104 208 -22 301 -2 1144 247 887 262 1139 335 1147 334 10 -1
-28 -14 -552 -197 -813 -283 -1097 -399 -1296 -530 -188 -124 -199 -192 -30
-192 45 0 115 7 156 15 185 39 592 194 1474 564 146 61 266 110 267 108 2 -2
-72 -38 -164 -81 -369 -173 -729 -368 -921 -500 -119 -80 -269 -223 -294 -278
-23 -48 -22 -85 2 -98 61 -32 553 195 1276 590 404 221 405 222 405 216 0 -2
-44 -30 -97 -62 -476 -283 -863 -611 -1012 -858 -28 -47 -31 -58 -21 -72 16
-19 59 -13 175 23 154 48 265 115 520 312 83 64 166 128 185 142 50 37 390
259 390 255 0 -2 -53 -48 -117 -104 -256 -218 -472 -463 -569 -646 -75 -142
-48 -135 256 67 246 164 542 397 775 610 108 99 104 89 -19 -43 -99 -106 -225
-263 -284 -353 -82 -128 -142 -289 -121 -328 30 -56 186 16 326 151 37 36 64
61 61 55 -3 -5 -24 -40 -47 -78 -109 -178 -219 -436 -276 -641 -78 -286 -102
-465 -115 -856 -15 -431 -44 -649 -114 -858 -49 -145 -105 -251 -227 -429
-284 -416 -328 -484 -358 -557 -38 -91 -52 -176 -29 -176 8 0 39 30 68 68 81
101 311 371 323 379 6 4 0 -11 -13 -33 -208 -336 -406 -741 -424 -866 -12 -82
27 -235 57 -225 21 6 142 231 357 661 116 231 210 417 210 415 0 -3 -23 -64
-51 -135 -347 -879 -456 -1287 -420 -1564 20 -145 88 -255 139 -224 31 19 78
100 104 180 36 108 70 266 117 544 45 264 86 438 160 680 59 196 172 522 178
516 2 -2 -12 -75 -31 -162 -96 -434 -139 -754 -140 -1034 0 -217 11 -300 53
-395 18 -42 44 -65 57 -52 19 18 117 493 160 767 14 96 41 290 59 430 l32 255
6 -270 c5 -277 18 -401 58 -560 24 -92 34 -115 54 -115 14 0 26 44 50 194 42
262 65 592 74 1086 l6 355 125 68 c221 121 778 393 1000 487 459 197 951 371
1383 490 185 51 480 190 676 320 466 308 777 741 986 1375 93 284 184 706 235
1091 39 296 36 282 75 329 90 111 342 258 495 289 41 8 120 18 175 21 356 21
626 85 902 214 90 43 141 61 169 61 21 0 142 -16 269 -35 1125 -170 2059 -431
2847 -796 l127 -59 191 0 c129 0 189 3 185 10 -4 6 -77 57 -163 114 -767 507
-1796 887 -3077 1136 -241 46 -205 29 -271 133 -572 904 -1210 1356 -1919
1359 -226 1 -403 -33 -587 -112 -407 -175 -749 -512 -1288 -1270 -84 -118
-164 -227 -178 -242 -34 -37 -104 -52 -216 -46 -219 13 -302 91 -465 443 -166
358 -204 406 -546 679 -528 423 -1111 754 -2016 1146 -282 123 -703 309 -1084
480 -1522 684 -2128 932 -2680 1100 -380 115 -648 169 -890 177 -150 5 -161 4
-177 -14z m3020 -2230 c-10 -2 -28 -2 -40 0 -13 2 -5 4 17 4 22 1 32 -1 23 -4z
m849 -2119 c-3 -3 -12 -4 -19 -1 -8 3 -5 6 6 6 11 1 17 -2 13 -5z m570 -530
c-3 -3 -12 -4 -19 -1 -8 3 -5 6 6 6 11 1 17 -2 13 -5z m-50 -10 c-3 -3 -12 -4
-19 -1 -8 3 -5 6 6 6 11 1 17 -2 13 -5z m-44 -11 c-7 -2 -19 -2 -25 0 -7 3 -2
5 12 5 14 0 19 -2 13 -5z m897 -468 c0 -2 -10 -9 -22 -15 -22 -11 -22 -10 -4
4 21 17 26 19 26 11z m237 -4237 c-2 -13 -4 -5 -4 17 -1 22 1 32 4 23 2 -10 2
-28 0 -40z"/>
</g>
</svg>
